<svg aria-hidden="true" style="position: absolute; width: 0; height: 0; overflow: hidden;" version="1.1" xmlns="http://www.w3.org/2000/svg" xmlns:xlink="http://www.w3.org/1999/xlink">
<defs>
<symbol id="icon-lamp" viewBox="0 0 32 32" >
<path d="M19.037 22.941c0.535-0.742 1.195-1.401 1.833-2.038 1.435-1.432 2.791-2.785 2.791-4.978 0-4.227-3.439-7.666-7.666-7.666s-7.667 3.439-7.667 7.666c0 2.192 1.356 3.546 2.791 4.978 0.638 0.637 1.298 1.296 1.834 2.038 0.189 0.262 0.362 0.539 0.529 0.806 0.222 0.355 0.439 0.702 0.684 1.004 0.026-0.021 0.059-0.034 0.095-0.034h0.272c-0.286-0.314-0.534-0.709-0.796-1.129-0.17-0.272-0.346-0.553-0.54-0.823-0.549-0.762-1.218-1.43-1.865-2.075-1.39-1.387-2.703-2.697-2.703-4.765 0-4.061 3.304-7.366 7.366-7.366s7.365 3.304 7.365 7.366c0 2.067-1.313 3.378-2.703 4.765-0.647 0.645-1.315 1.313-1.865 2.075-0.195 0.27-0.37 0.551-0.54 0.823-0.263 0.42-0.51 0.815-0.796 1.129h0.232c0.047 0 0.089 0.022 0.117 0.057 0.253-0.307 0.475-0.663 0.703-1.026 0.167-0.268 0.34-0.545 0.529-0.806z"></path>
<path d="M17.811 14.605c0.001 0 0.002 0 0.003 0 0.057 0.002 0.124 0.059 0.158 0.134 0.080 0.174-0.006 0.389-0.046 0.473-0.044 0.092-0.111 0.187-0.192 0.268-0.065-0.141-0.099-0.31-0.094-0.482 0.004-0.127 0.030-0.24 0.074-0.318 0.028-0.050 0.060-0.075 0.097-0.075zM16.737 14.326c0.009 0 0.016 0.001 0.020 0.002 0.066 0.013 0.14 0.094 0.188 0.204 0.049 0.114 0.043 0.331 0.012 0.486-0.030 0.149-0.095 0.293-0.183 0.421-0.113-0.141-0.188-0.325-0.22-0.507-0.036-0.203-0.054-0.428 0.078-0.554 0.047-0.045 0.083-0.053 0.105-0.053zM15.182 15.354c0.008-0.139 0.040-0.319 0.096-0.408 0.078-0.125 0.152-0.183 0.183-0.183 0.003 0 0.005 0 0.007 0.001 0.024 0.011 0.054 0.091 0.045 0.236-0.006 0.101-0.056 0.242-0.126 0.358-0.045 0.075-0.107 0.145-0.179 0.206-0.021-0.066-0.030-0.137-0.026-0.211zM14.051 14.957c0.033-0.043 0.091-0.069 0.153-0.069 0.005 0 0.009 0 0.014 0 0.066 0.004 0.122 0.036 0.151 0.087 0.091 0.156 0.089 0.361-0.006 0.547-0.026 0.051-0.058 0.098-0.094 0.142-0.158-0.145-0.369-0.51-0.218-0.707zM13.68 16.005c0.051-0.010 0.101 0.023 0.111 0.074l0.011 0.053c0.082-0.017 0.16-0.041 0.233-0.072 0.094-0.040 0.18-0.091 0.255-0.153 0.136 0.071 0.295 0.096 0.469 0.070 0.13-0.019 0.262-0.067 0.382-0.135 0.063 0.088 0.14 0.161 0.225 0.218 0.118 0.079 0.251 0.126 0.388 0.131 0.013 0 0.025 0.001 0.038 0.001 0.182 0 0.367-0.048 0.539-0.132 0.171-0.083 0.329-0.202 0.461-0.345 0.157 0.122 0.352 0.188 0.575 0.16 0.118-0.014 0.225-0.057 0.321-0.117 0.107 0.132 0.246 0.225 0.391 0.301 0.050 0.026 0.1 0.051 0.151 0.074l0.011-0.055c0.011-0.051 0.060-0.084 0.111-0.073 0.008 0.002 0.015 0.006 0.022 0.009-0.009-0.017-0.022-0.032-0.041-0.041-0.191-0.088-0.372-0.179-0.496-0.33 0.116-0.107 0.205-0.235 0.26-0.35 0.11-0.228 0.128-0.459 0.048-0.633-0.064-0.14-0.194-0.238-0.322-0.243-0.065-0.003-0.186 0.016-0.272 0.171-0.075 0.134-0.095 0.294-0.098 0.405-0.007 0.22 0.039 0.431 0.131 0.607-0.074 0.046-0.155 0.078-0.241 0.088-0.17 0.021-0.315-0.027-0.434-0.117 0.113-0.156 0.195-0.331 0.233-0.516 0.028-0.138 0.054-0.418-0.023-0.598-0.074-0.17-0.194-0.287-0.323-0.313-0.071-0.014-0.179-0.009-0.292 0.098-0.224 0.212-0.161 0.57-0.134 0.723 0.040 0.23 0.14 0.453 0.288 0.622-0.237 0.258-0.574 0.426-0.896 0.415-0.176-0.007-0.348-0.107-0.464-0.266 0.102-0.080 0.189-0.176 0.252-0.28 0.068-0.112 0.143-0.288 0.153-0.444 0.014-0.221-0.042-0.37-0.158-0.421-0.134-0.058-0.285 0.032-0.424 0.255-0.099 0.158-0.12 0.421-0.124 0.498-0.006 0.116 0.012 0.229 0.054 0.333-0.101 0.057-0.211 0.098-0.318 0.114-0.084 0.013-0.192 0.014-0.3-0.027 0.038-0.048 0.072-0.101 0.1-0.156 0.124-0.244 0.124-0.515 0.001-0.727-0.061-0.105-0.174-0.172-0.302-0.18-0.131-0.008-0.254 0.045-0.328 0.142-0.212 0.277-0.003 0.729 0.229 0.949-0.131 0.094-0.295 0.155-0.482 0.174-0.052 0.005-0.089 0.052-0.084 0.103 0.003 0.031 0.022 0.055 0.046 0.070l-0.005-0.023c-0.010-0.051 0.023-0.1 0.074-0.111z"></path>
<path d="M13.791 16.079c-0.010-0.051-0.060-0.084-0.111-0.074s-0.084 0.060-0.074 0.111l0.005 0.023 1.72 8.578h0.192l-1.732-8.638z"></path>
<path d="M18.372 16.015c-0.007-0.003-0.014-0.008-0.022-0.009-0.052-0.011-0.101 0.022-0.111 0.073l-0.011 0.055-1.77 8.583h0.192l1.774-8.6c0.009-0.043-0.014-0.083-0.052-0.102z"></path>
<path d="M17.538 25.715v0.232l0.271-0.038c0.010-0.001 0.020-0.002 0.030-0.003v-0.237c-0.011 0.003-0.022 0.007-0.034 0.009l-0.266 0.037z"></path>
<path d="M14.464 27.471c-0.025-0.095-0.041-0.194-0.047-0.296l-0.276 0.038c-0.008 0.001-0.016 0.001-0.024 0.002 0.008 0.103 0.023 0.203 0.047 0.3 0.007-0.002 0.014-0.005 0.022-0.006l0.278-0.039z"></path>
<path d="M17.688 24.717h-3.426c-0.036 0-0.069 0.013-0.095 0.034-0.034 0.028-0.056 0.069-0.056 0.116v0.532l0.301-0.042v-0.34h2.438l0.846-0.118c0.049-0.007 0.098-0.003 0.143 0.011v-0.044c0-0.036-0.013-0.068-0.034-0.094-0.028-0.034-0.069-0.057-0.117-0.057z"></path>
<path d="M17.538 26.741v0.302l0.301-0.042v-0.302l-0.301 0.042z"></path>
<path d="M14.412 26.383v-0.232l-0.301 0.042v0.232l0.301-0.042z"></path>
<path d="M17.321 27.867c-0.272 0.462-0.773 0.774-1.347 0.774-0.419 0-0.799-0.166-1.080-0.436l-0.364 0.051c0.342 0.418 0.862 0.686 1.443 0.686 0.765 0 1.424-0.464 1.711-1.125l-0.364 0.051z"></path>
<path d="M22.102 9.448c0.029 0.030 0.068 0.045 0.107 0.045s0.076-0.014 0.106-0.043l2.357-2.319c0.059-0.058 0.060-0.154 0.002-0.213s-0.154-0.060-0.213-0.002l-2.357 2.319c-0.059 0.058-0.060 0.153-0.002 0.213z"></path>
<path d="M24.339 12.398c0.021 0.063 0.080 0.102 0.142 0.102 0.016 0 0.032-0.003 0.048-0.008l2.3-0.778c0.079-0.027 0.121-0.112 0.094-0.191s-0.112-0.121-0.191-0.094l-2.3 0.778c-0.079 0.027-0.121 0.112-0.094 0.191z"></path>
<path d="M19.989 4.874l-0.778 2.3c-0.027 0.079 0.016 0.164 0.094 0.191 0.016 0.005 0.032 0.008 0.048 0.008 0.063 0 0.121-0.040 0.143-0.102l0.778-2.299c0.027-0.079-0.016-0.164-0.094-0.191s-0.164 0.016-0.191 0.094z"></path>
<path d="M9.675 9.45c0.029 0.029 0.067 0.043 0.106 0.043s0.078-0.015 0.107-0.045c0.058-0.059 0.058-0.154-0.002-0.213l-2.357-2.319c-0.059-0.058-0.154-0.057-0.213 0.002s-0.058 0.154 0.002 0.213l2.357 2.319z"></path>
<path d="M5.16 11.715l2.3 0.778c0.016 0.005 0.032 0.008 0.048 0.008 0.063 0 0.121-0.040 0.143-0.102 0.027-0.079-0.016-0.164-0.094-0.191l-2.3-0.778c-0.079-0.027-0.164 0.016-0.191 0.094s0.016 0.164 0.094 0.191z"></path>
<path d="M11.81 4.78c-0.079 0.027-0.121 0.112-0.094 0.191l0.778 2.299c0.021 0.063 0.080 0.102 0.143 0.102 0.016 0 0.032-0.003 0.048-0.008 0.079-0.027 0.121-0.112 0.094-0.191l-0.778-2.3c-0.027-0.079-0.112-0.121-0.191-0.094z"></path>
<path d="M15.809 3.199v3.599c0 0.083 0.067 0.151 0.15 0.151s0.151-0.067 0.151-0.151v-3.599c0-0.083-0.067-0.151-0.15-0.151s-0.15 0.067-0.15 0.151z"></path>
<path d="M18.001 10.097c0.004 0.001 0.054 0.016 0.14 0.048 0.672 0.248 3.561 1.518 4.288 5.199 0.011 0.055 0.022 0.111 0.032 0.167 0.008 0.046 0.048 0.078 0.093 0.078 0.005 0 0.011-0 0.016-0.001 0.051-0.009 0.085-0.058 0.076-0.109-0.406-2.304-1.632-3.693-2.588-4.453-1.037-0.824-1.966-1.098-2.005-1.11-0.050-0.014-0.102 0.014-0.116 0.064s0.014 0.102 0.064 0.116z"></path>
<path d="M17.807 25.281c0.007 0.052-0.017 0.095-0.045 0.099l-3.78 0.526c-0.025 0-0.059-0.034-0.066-0.084-0.004-0.030 0.002-0.061 0.018-0.081 0.006-0.007 0.015-0.017 0.027-0.018l3.78-0.526c0.026 0 0.059 0.034 0.066 0.083zM17.696 24.9l-3.776 0.526c-0.089 0.012-0.169 0.060-0.226 0.135-0.063 0.084-0.091 0.195-0.075 0.304 0.027 0.195 0.183 0.343 0.364 0.343 0.015 0 0.030-0.001 0.046-0.003l3.776-0.526c0.012-0.002 0.023-0.006 0.034-0.009 0.177-0.044 0.295-0.228 0.267-0.43-0.022-0.159-0.13-0.287-0.267-0.328-0.045-0.014-0.093-0.018-0.143-0.011z"></path>
<path d="M17.92 26.291c0.004 0.030-0.002 0.060-0.017 0.081-0.006 0.008-0.015 0.017-0.027 0.018l-3.78 0.526c-0.023 0-0.058-0.029-0.066-0.084-0.004-0.028 0.001-0.056 0.014-0.076 0.005-0.008 0.015-0.021 0.030-0.023l3.78-0.526c0.026 0 0.059 0.034 0.066 0.084zM17.538 25.947l-3.505 0.488c-0.098 0.014-0.186 0.071-0.242 0.158-0.052 0.081-0.073 0.181-0.059 0.28 0.027 0.195 0.184 0.343 0.364 0.343 0.007 0 0.014-0.001 0.022-0.002s0.016-0 0.024-0.002l3.776-0.526c0.089-0.013 0.169-0.060 0.226-0.135 0.063-0.084 0.091-0.194 0.076-0.304-0.028-0.201-0.194-0.352-0.38-0.342-0.010 0-0.020 0.001-0.030 0.003l-0.271 0.038z"></path>
<path d="M18.073 27.365c0.004 0.028-0.001 0.056-0.014 0.076-0.005 0.008-0.015 0.021-0.030 0.023l-3.78 0.526c-0.026 0-0.059-0.034-0.066-0.084-0.004-0.028 0.001-0.056 0.014-0.076 0.005-0.008 0.016-0.021 0.030-0.023l3.78-0.526c0.026 0 0.059 0.034 0.066 0.084zM17.538 27.043l-3.352 0.467c-0.008 0.001-0.015 0.004-0.022 0.006-0.089 0.019-0.168 0.073-0.22 0.153s-0.073 0.181-0.059 0.28c0.027 0.196 0.183 0.343 0.364 0.343 0.015 0 0.030-0.001 0.046-0.003l3.776-0.526c0.098-0.014 0.186-0.071 0.242-0.158 0.052-0.081 0.073-0.181 0.059-0.28-0.029-0.212-0.211-0.367-0.41-0.34l-0.424 0.059z"></path>
</symbol>
</defs>
</svg>
